<svg width="600" height="600" viewBox="0 0 600 600" fill="none" xmlns="http://www.w3.org/2000/svg">
<rect width="600" height="600" fill="#FA8500"/>
<path d="M169.182 91.5426C175.366 91.157 180.822 90.5785 186.277 90.5785C275.39 90.5785 364.685 90.9642 453.797 90C471.074 90 475.803 95.3992 474.893 113.332C473.438 139.75 474.53 166.361 474.53 195.478H268.297C268.297 219.196 268.116 240.215 268.297 261.233C268.297 273.575 277.572 270.682 284.301 270.682C335.587 270.682 386.872 270.682 438.157 270.682C444.159 270.682 450.16 270.682 458.889 270.682C458.889 304.428 459.253 336.63 458.162 368.833C458.162 371.725 448.523 376.546 443.431 376.739C393.237 377.318 343.043 377.125 292.849 377.125C276.239 377.125 267.934 386.188 267.934 404.314C267.934 449.243 267.57 494.173 268.116 539.102C268.297 553.179 264.842 559.542 250.293 558.964C226.833 558 203.554 558.385 180.094 558.578C171.183 558.578 167 555.879 167 545.466C167.364 395.829 167.364 246.386 167.364 96.7491C167.364 95.5921 167.909 94.4351 168.819 91.1569L169.182 91.5426Z" fill="black"/>
</svg>
